<?xml version="1.0" encoding="iso-8859-1"?>
<!-- Generator: Adobe Illustrator 19.0.0, SVG Export Plug-In . SVG Version: 6.00 Build 0)  -->
<svg version="1.1" id="Layer_1" xmlns="http://www.w3.org/2000/svg" xmlns:xlink="http://www.w3.org/1999/xlink" x="0px" y="0px"
	 viewBox="0 0 496 496" style="enable-background:new 0 0 496 496;" xml:space="preserve">
<g>
	<g>
		<g>
			<path d="M72,280h112V176H72V280z M168,240h-32v-24h32V240z M88,192h80v8h-48v56h48v8H88V192z"/>
			<rect x="96" y="208" width="16" height="16"/>
			<rect x="96" y="232" width="16" height="16"/>
			<path d="M496,160V0H272v152v8v48h-16.448c-2.752-24.792-18.136-45.808-39.552-56.48V88c0-48.52-39.48-88-88-88S40,39.48,40,88
				v63.6C16.336,163.408,0,187.8,0,216v80c0,26.472,21.528,48,48,48v152h160V270.632c2.504,0.88,5.192,1.368,8,1.368h56v224h16V272
				c17.648,0,32-14.352,32-32s-14.352-32-32-32v-48H496z M288,16h192v32H288V16z M288,64h192v32H288V64z M288,112h192v32H288V112z
				 M56,88c0-39.704,32.296-72,72-72s72,32.296,72,72v57.864c-5.152-1.176-10.496-1.864-16-1.864h-25.088
				C178.616,133.08,192,112.08,192,88c0-35.288-28.712-64-64-64c-35.288,0-64,28.712-64,64c0,24.08,13.384,45.08,33.088,56H72
				c-5.504,0-10.848,0.68-16,1.856V88z M120,68c0,15.44,12.56,28,28,28c12.464,0,22.928-8.24,26.544-19.52
				C175.456,80.176,176,84.024,176,88c0,26.472-21.528,48-48,48s-48-21.528-48-48s21.528-48,48-48c3.976,0,7.824,0.544,11.52,1.456
				C128.24,45.072,120,55.536,120,68z M148,56c6.616,0,12,5.384,12,12c0,6.616-5.384,12-12,12c-6.616,0-12-5.384-12-12
				C136,61.384,141.384,56,148,56z M48,328c-17.648,0-32-14.352-32-32h32V328z M120,480H64v-16h56V480z M192,480h-56v-16h56V480z
				 M192,392h-16v16h16v40h-56v-40h24v-16h-24v-32h-16v32h-16v16h16v40H64v-40h24v-16H64v-64h16v8h16v-8h24v8h16v-8h24v8h16v-8h16
				V392z M240,224v32h-24c-4.416,0-8-3.584-8-8v-48h-16v112h-16v-8h-16v8h-24v-8h-16v8H96v-8H80v8H64V200H48v80H16v-64
				c0-30.872,25.128-56,56-56h112c30.872,0,56,25.128,56,56V224z M272,256h-16v-32h16V256z M304,240c0,8.824-7.176,16-16,16v-32
				C296.824,224,304,231.176,304,240z"/>
		</g>
	</g>
</g>
<g>
</g>
<g>
</g>
<g>
</g>
<g>
</g>
<g>
</g>
<g>
</g>
<g>
</g>
<g>
</g>
<g>
</g>
<g>
</g>
<g>
</g>
<g>
</g>
<g>
</g>
<g>
</g>
<g>
</g>
</svg>
